<svg width="28" height="33" viewBox="0 0 28 33" fill="none" xmlns="http://www.w3.org/2000/svg">
<path d="M4.66667 10.8889V9.33333C4.66667 4.17867 8.84534 0 14 0C19.1546 0 23.3333 4.17867 23.3333 9.33333V10.8889H26.4444C27.3036 10.8889 28 11.5853 28 12.4444V31.1111C28 31.9702 27.3036 32.6667 26.4444 32.6667H1.55556C0.696453 32.6667 0 31.9702 0 31.1111V12.4444C0 11.5853 0.696453 10.8889 1.55556 10.8889H4.66667ZM24.8889 14H3.11111V29.5555H24.8889V14ZM12.4444 22.9171C11.5145 22.3792 10.8889 21.3738 10.8889 20.2222C10.8889 18.504 12.2817 17.1111 14 17.1111C15.7183 17.1111 17.1111 18.504 17.1111 20.2222C17.1111 21.3738 16.4855 22.3792 15.5556 22.9171V26.4444H12.4444V22.9171ZM7.77778 10.8889H20.2222V9.33333C20.2222 5.89689 17.4364 3.11111 14 3.11111C10.5636 3.11111 7.77778 5.89689 7.77778 9.33333V10.8889Z" fill="#E28725"/>
</svg>
